<?xml version="1.0" standalone="no"?>
<!DOCTYPE svg PUBLIC "-//W3C//DTD SVG 20010904//EN"
 "http://www.w3.org/TR/2001/REC-SVG-20010904/DTD/svg10.dtd">
<svg version="1.0" xmlns="http://www.w3.org/2000/svg"
 width="300.000000pt" height="288.000000pt" viewBox="0 0 300.000000 288.000000"
 preserveAspectRatio="xMidYMid meet">
<metadata>
Created by potrace 1.10, written by Peter Selinger 2001-2011
</metadata>
<g transform="translate(0.000000,288.000000) scale(0.100000,-0.100000)"
fill="#000000" stroke="none">
<path d="M286 2434 c-25 -24 -29 -59 -23 -173 6 -114 43 -280 82 -368 l23 -51
-39 -76 c-126 -240 -157 -534 -84 -793 31 -110 119 -287 184 -373 107 -142
281 -285 449 -369 90 -46 251 -97 362 -117 127 -22 400 -22 529 0 486 86 874
424 997 867 38 138 44 353 15 497 -23 110 -64 225 -111 309 l-29 52 20 47 c41
91 80 273 86 396 6 115 6 116 -20 142 -14 14 -35 26 -45 26 -65 0 -259 -84
-384 -166 l-67 -45 -48 30 c-72 44 -205 96 -328 128 -106 27 -119 28 -350 28
-228 0 -245 -1 -346 -27 -122 -31 -238 -75 -325 -124 l-62 -34 -68 46 c-89 60
-185 108 -278 139 -86 29 -118 31 -140 9z m131 -44 c77 -27 197 -88 285 -146
l68 -46 98 50 c214 110 365 145 627 145 202 1 311 -14 457 -63 84 -28 223 -93
262 -122 16 -13 26 -9 100 40 129 87 314 168 368 160 22 -3 23 -7 26 -93 4
-122 -37 -319 -90 -432 l-19 -41 55 -114 c137 -282 148 -581 31 -864 -149
-360 -471 -616 -888 -706 -137 -29 -436 -32 -567 -5 -455 95 -806 389 -933
782 -42 130 -51 192 -50 335 0 190 46 368 129 506 l35 57 -30 71 c-67 165
-109 442 -75 498 9 13 48 9 111 -12z"/>
</g>
</svg>
